# xmcd CD database file
#
# Track frame offsets:
#	150
#	19149
#	42795
#	55877
#	68044
#	86333
#	98602
#	119134
#	131702
#	149237
#	166296
#
# Disc length: 2449 seconds
#
# Revision: 0
# Processed by: cddbd v1.5.2PL0 Copyright (c) Steve Scherf et al.
# Submitted via: CDex 1.70beta1
#
DISCID=9b098f0b
DTITLE=Joe Cocker - The Millennium Collection
DYEAR=2000
DGENRE=Blues
TTITLE0=Feelin' Alight
TTITLE1=With A Little Help From My Friends
TTITLE2=Delta Lady
TTITLE3=She Came In Through The Bathroom Window
TTITLE4=Cry Me A River (Live)
TTITLE5=The Letter (Live)
TTITLE6=High Time We Went
TTITLE7=You Are So Beautiful
TTITLE8=The Jealous Kind
TTITLE9=Many Rivers To Cross
TTITLE10=Up Where We Belong
EXTD=YEAR: 2000
EXTT0=
EXTT1=
EXTT2=
EXTT3=
EXTT4=
EXTT5=
EXTT6=
EXTT7=
EXTT8=
EXTT9=
EXTT10=
PLAYORDER=
